<mxfile host="app.diagrams.net" modified="2021-10-28T06:50:51.718Z" agent="5.0 (Macintosh; Intel Mac OS X 10_15_7) AppleWebKit/537.36 (KHTML, like Gecko) Chrome/94.0.4606.81 Safari/537.36" etag="oWrYsYJqXju7DiQjQFXc" version="15.6.1" type="github">
  <diagram id="Z3Hw3iVgkV-uDlRQ_CJL" name="Page-1">
    <mxGraphModel dx="946" dy="646" grid="1" gridSize="10" guides="1" tooltips="1" connect="1" arrows="1" fold="1" page="1" pageScale="1" pageWidth="850" pageHeight="1100" math="0" shadow="0">
      <root>
        <mxCell id="0" />
        <mxCell id="1" parent="0" />
        <mxCell id="3rDCSSCqS77mmed0jcyM-31" style="edgeStyle=orthogonalEdgeStyle;rounded=0;orthogonalLoop=1;jettySize=auto;html=1;exitX=0.375;exitY=1;exitDx=0;exitDy=0;entryX=0.375;entryY=0;entryDx=0;entryDy=0;shadow=0;strokeColor=#FF0000;strokeWidth=2;" edge="1" parent="1" source="3rDCSSCqS77mmed0jcyM-1" target="3rDCSSCqS77mmed0jcyM-17">
          <mxGeometry relative="1" as="geometry">
            <Array as="points">
              <mxPoint x="125" y="770" />
              <mxPoint x="125" y="770" />
            </Array>
          </mxGeometry>
        </mxCell>
        <mxCell id="3rDCSSCqS77mmed0jcyM-34" style="edgeStyle=orthogonalEdgeStyle;rounded=0;orthogonalLoop=1;jettySize=auto;html=1;exitX=1;exitY=0.25;exitDx=0;exitDy=0;entryX=0.375;entryY=1;entryDx=0;entryDy=0;shadow=0;strokeColor=#00CC00;strokeWidth=2;" edge="1" parent="1" source="3rDCSSCqS77mmed0jcyM-1" target="3rDCSSCqS77mmed0jcyM-2">
          <mxGeometry relative="1" as="geometry" />
        </mxCell>
        <mxCell id="3rDCSSCqS77mmed0jcyM-38" style="edgeStyle=orthogonalEdgeStyle;rounded=0;orthogonalLoop=1;jettySize=auto;html=1;exitX=1;exitY=0.5;exitDx=0;exitDy=0;entryX=0.375;entryY=1;entryDx=0;entryDy=0;shadow=0;strokeColor=#00CC00;strokeWidth=2;" edge="1" parent="1" source="3rDCSSCqS77mmed0jcyM-1" target="3rDCSSCqS77mmed0jcyM-24">
          <mxGeometry relative="1" as="geometry" />
        </mxCell>
        <mxCell id="3rDCSSCqS77mmed0jcyM-43" style="edgeStyle=orthogonalEdgeStyle;rounded=0;orthogonalLoop=1;jettySize=auto;html=1;exitX=1;exitY=0.75;exitDx=0;exitDy=0;shadow=0;strokeColor=#00CC00;strokeWidth=2;entryX=0.375;entryY=1;entryDx=0;entryDy=0;" edge="1" parent="1" source="3rDCSSCqS77mmed0jcyM-1" target="3rDCSSCqS77mmed0jcyM-4">
          <mxGeometry relative="1" as="geometry">
            <mxPoint x="670" y="670" as="targetPoint" />
          </mxGeometry>
        </mxCell>
        <mxCell id="3rDCSSCqS77mmed0jcyM-60" style="edgeStyle=orthogonalEdgeStyle;rounded=0;orthogonalLoop=1;jettySize=auto;html=1;exitX=0.625;exitY=1;exitDx=0;exitDy=0;entryX=0;entryY=1;entryDx=0;entryDy=0;shadow=0;strokeColor=#FF8000;strokeWidth=2;" edge="1" parent="1" source="3rDCSSCqS77mmed0jcyM-1" target="3rDCSSCqS77mmed0jcyM-58">
          <mxGeometry relative="1" as="geometry" />
        </mxCell>
        <mxCell id="3rDCSSCqS77mmed0jcyM-1" value="Enframer" style="shape=hexagon;perimeter=hexagonPerimeter2;whiteSpace=wrap;html=1;fixedSize=1;" vertex="1" parent="1">
          <mxGeometry x="80" y="650" width="120" height="80" as="geometry" />
        </mxCell>
        <mxCell id="3rDCSSCqS77mmed0jcyM-39" style="edgeStyle=orthogonalEdgeStyle;rounded=0;orthogonalLoop=1;jettySize=auto;html=1;exitX=1;exitY=0.5;exitDx=0;exitDy=0;entryX=0;entryY=0.5;entryDx=0;entryDy=0;shadow=0;strokeColor=#00CC00;strokeWidth=2;" edge="1" parent="1" source="3rDCSSCqS77mmed0jcyM-2" target="3rDCSSCqS77mmed0jcyM-24">
          <mxGeometry relative="1" as="geometry" />
        </mxCell>
        <mxCell id="3rDCSSCqS77mmed0jcyM-47" style="edgeStyle=orthogonalEdgeStyle;rounded=0;orthogonalLoop=1;jettySize=auto;html=1;exitX=0;exitY=0.5;exitDx=0;exitDy=0;entryX=0.625;entryY=0;entryDx=0;entryDy=0;shadow=0;strokeColor=#6600CC;strokeWidth=2;" edge="1" parent="1" source="3rDCSSCqS77mmed0jcyM-2" target="3rDCSSCqS77mmed0jcyM-1">
          <mxGeometry relative="1" as="geometry" />
        </mxCell>
        <mxCell id="3rDCSSCqS77mmed0jcyM-66" style="edgeStyle=orthogonalEdgeStyle;rounded=0;orthogonalLoop=1;jettySize=auto;html=1;exitX=0.375;exitY=0;exitDx=0;exitDy=0;entryX=1;entryY=1;entryDx=0;entryDy=0;shadow=0;strokeColor=#FF8000;strokeWidth=2;" edge="1" parent="1" source="3rDCSSCqS77mmed0jcyM-2" target="3rDCSSCqS77mmed0jcyM-58">
          <mxGeometry relative="1" as="geometry">
            <Array as="points">
              <mxPoint x="325" y="440" />
            </Array>
          </mxGeometry>
        </mxCell>
        <mxCell id="3rDCSSCqS77mmed0jcyM-2" value="Stoic" style="shape=hexagon;perimeter=hexagonPerimeter2;whiteSpace=wrap;html=1;fixedSize=1;" vertex="1" parent="1">
          <mxGeometry x="280" y="570" width="120" height="80" as="geometry" />
        </mxCell>
        <mxCell id="3rDCSSCqS77mmed0jcyM-30" style="edgeStyle=orthogonalEdgeStyle;rounded=0;orthogonalLoop=1;jettySize=auto;html=1;exitX=0.5;exitY=1;exitDx=0;exitDy=0;shadow=0;strokeColor=#FF0000;strokeWidth=2;" edge="1" parent="1" source="3rDCSSCqS77mmed0jcyM-3" target="3rDCSSCqS77mmed0jcyM-1">
          <mxGeometry relative="1" as="geometry" />
        </mxCell>
        <mxCell id="3rDCSSCqS77mmed0jcyM-37" style="edgeStyle=orthogonalEdgeStyle;rounded=0;orthogonalLoop=1;jettySize=auto;html=1;exitX=1;exitY=0.75;exitDx=0;exitDy=0;entryX=0.375;entryY=0;entryDx=0;entryDy=0;shadow=0;strokeColor=#00CC00;strokeWidth=2;" edge="1" parent="1" source="3rDCSSCqS77mmed0jcyM-3" target="3rDCSSCqS77mmed0jcyM-24">
          <mxGeometry relative="1" as="geometry" />
        </mxCell>
        <mxCell id="3rDCSSCqS77mmed0jcyM-45" style="edgeStyle=orthogonalEdgeStyle;rounded=0;orthogonalLoop=1;jettySize=auto;html=1;exitX=1;exitY=0.5;exitDx=0;exitDy=0;entryX=0.375;entryY=0;entryDx=0;entryDy=0;shadow=0;strokeColor=#00CC00;strokeWidth=2;" edge="1" parent="1" source="3rDCSSCqS77mmed0jcyM-3" target="3rDCSSCqS77mmed0jcyM-4">
          <mxGeometry relative="1" as="geometry" />
        </mxCell>
        <mxCell id="3rDCSSCqS77mmed0jcyM-55" style="edgeStyle=orthogonalEdgeStyle;rounded=0;orthogonalLoop=1;jettySize=auto;html=1;exitX=0.625;exitY=1;exitDx=0;exitDy=0;entryX=0;entryY=0.25;entryDx=0;entryDy=0;shadow=0;strokeColor=#00CC00;strokeWidth=2;" edge="1" parent="1" source="3rDCSSCqS77mmed0jcyM-3" target="3rDCSSCqS77mmed0jcyM-2">
          <mxGeometry relative="1" as="geometry" />
        </mxCell>
        <mxCell id="3rDCSSCqS77mmed0jcyM-56" style="edgeStyle=orthogonalEdgeStyle;rounded=0;orthogonalLoop=1;jettySize=auto;html=1;exitX=0.625;exitY=0;exitDx=0;exitDy=0;shadow=0;strokeColor=#FF8000;strokeWidth=2;startArrow=none;" edge="1" parent="1" source="3rDCSSCqS77mmed0jcyM-58">
          <mxGeometry relative="1" as="geometry">
            <mxPoint x="240" y="410" as="targetPoint" />
          </mxGeometry>
        </mxCell>
        <mxCell id="3rDCSSCqS77mmed0jcyM-62" style="edgeStyle=orthogonalEdgeStyle;rounded=0;orthogonalLoop=1;jettySize=auto;html=1;exitX=0.625;exitY=0;exitDx=0;exitDy=0;entryX=0;entryY=0.5;entryDx=0;entryDy=0;shadow=0;strokeColor=#FF8000;strokeWidth=2;" edge="1" parent="1" source="3rDCSSCqS77mmed0jcyM-3" target="3rDCSSCqS77mmed0jcyM-58">
          <mxGeometry relative="1" as="geometry" />
        </mxCell>
        <mxCell id="3rDCSSCqS77mmed0jcyM-3" value="Sensor" style="shape=hexagon;perimeter=hexagonPerimeter2;whiteSpace=wrap;html=1;fixedSize=1;" vertex="1" parent="1">
          <mxGeometry x="80" y="490" width="120" height="80" as="geometry" />
        </mxCell>
        <mxCell id="3rDCSSCqS77mmed0jcyM-50" style="edgeStyle=orthogonalEdgeStyle;rounded=0;orthogonalLoop=1;jettySize=auto;html=1;exitX=0.5;exitY=0;exitDx=0;exitDy=0;shadow=0;strokeColor=#FF8000;strokeWidth=2;entryX=1;entryY=0;entryDx=0;entryDy=0;" edge="1" parent="1" source="3rDCSSCqS77mmed0jcyM-4" target="3rDCSSCqS77mmed0jcyM-58">
          <mxGeometry relative="1" as="geometry">
            <mxPoint x="755" y="330" as="targetPoint" />
            <Array as="points">
              <mxPoint x="740" y="400" />
            </Array>
          </mxGeometry>
        </mxCell>
        <mxCell id="3rDCSSCqS77mmed0jcyM-106" style="edgeStyle=orthogonalEdgeStyle;rounded=0;orthogonalLoop=1;jettySize=auto;html=1;exitX=1;exitY=0.25;exitDx=0;exitDy=0;entryX=1;entryY=0.5;entryDx=0;entryDy=0;shadow=0;strokeColor=#6600CC;strokeWidth=2;" edge="1" parent="1" source="3rDCSSCqS77mmed0jcyM-4" target="3rDCSSCqS77mmed0jcyM-105">
          <mxGeometry relative="1" as="geometry">
            <Array as="points">
              <mxPoint x="830" y="543" />
              <mxPoint x="830" y="930" />
            </Array>
          </mxGeometry>
        </mxCell>
        <mxCell id="3rDCSSCqS77mmed0jcyM-4" value="Abstractor" style="shape=hexagon;perimeter=hexagonPerimeter2;whiteSpace=wrap;html=1;fixedSize=1;" vertex="1" parent="1">
          <mxGeometry x="680" y="570" width="120" height="80" as="geometry" />
        </mxCell>
        <mxCell id="3rDCSSCqS77mmed0jcyM-29" style="edgeStyle=orthogonalEdgeStyle;rounded=0;orthogonalLoop=1;jettySize=auto;html=1;exitX=0.5;exitY=1;exitDx=0;exitDy=0;shadow=0;strokeColor=#FF0000;strokeWidth=2;" edge="1" parent="1" source="3rDCSSCqS77mmed0jcyM-5" target="3rDCSSCqS77mmed0jcyM-3">
          <mxGeometry relative="1" as="geometry" />
        </mxCell>
        <mxCell id="3rDCSSCqS77mmed0jcyM-52" style="edgeStyle=orthogonalEdgeStyle;rounded=0;orthogonalLoop=1;jettySize=auto;html=1;exitX=1;exitY=1;exitDx=0;exitDy=0;shadow=0;strokeColor=#FF8000;strokeWidth=2;entryX=0;entryY=0;entryDx=0;entryDy=0;" edge="1" parent="1" source="3rDCSSCqS77mmed0jcyM-5" target="3rDCSSCqS77mmed0jcyM-58">
          <mxGeometry relative="1" as="geometry">
            <mxPoint x="520" y="270" as="targetPoint" />
          </mxGeometry>
        </mxCell>
        <mxCell id="3rDCSSCqS77mmed0jcyM-65" style="edgeStyle=orthogonalEdgeStyle;rounded=0;orthogonalLoop=1;jettySize=auto;html=1;exitX=1;exitY=0.5;exitDx=0;exitDy=0;entryX=0.375;entryY=0;entryDx=0;entryDy=0;shadow=0;strokeColor=#007FFF;strokeWidth=2;entryPerimeter=0;" edge="1" parent="1" source="3rDCSSCqS77mmed0jcyM-5" target="3rDCSSCqS77mmed0jcyM-64">
          <mxGeometry relative="1" as="geometry" />
        </mxCell>
        <mxCell id="3rDCSSCqS77mmed0jcyM-5" value="Drop" style="ellipse;whiteSpace=wrap;html=1;aspect=fixed;fillColor=#dae8fc;strokeColor=#6c8ebf;" vertex="1" parent="1">
          <mxGeometry x="100" y="10" width="80" height="80" as="geometry" />
        </mxCell>
        <mxCell id="3rDCSSCqS77mmed0jcyM-67" style="edgeStyle=orthogonalEdgeStyle;rounded=0;orthogonalLoop=1;jettySize=auto;html=1;exitX=0.25;exitY=0;exitDx=0;exitDy=0;entryX=0;entryY=0.5;entryDx=0;entryDy=0;shadow=0;strokeColor=#FF0000;strokeWidth=2;fillColor=#f8cecc;" edge="1" parent="1" source="3rDCSSCqS77mmed0jcyM-6" target="3rDCSSCqS77mmed0jcyM-1">
          <mxGeometry relative="1" as="geometry" />
        </mxCell>
        <mxCell id="3rDCSSCqS77mmed0jcyM-73" style="edgeStyle=orthogonalEdgeStyle;rounded=0;orthogonalLoop=1;jettySize=auto;html=1;exitX=0.25;exitY=1;exitDx=0;exitDy=0;entryX=0.375;entryY=0;entryDx=0;entryDy=0;shadow=0;strokeColor=#FF0000;strokeWidth=2;" edge="1" parent="1" source="3rDCSSCqS77mmed0jcyM-6" target="3rDCSSCqS77mmed0jcyM-71">
          <mxGeometry relative="1" as="geometry" />
        </mxCell>
        <mxCell id="3rDCSSCqS77mmed0jcyM-75" style="edgeStyle=orthogonalEdgeStyle;rounded=0;orthogonalLoop=1;jettySize=auto;html=1;exitX=0.75;exitY=1;exitDx=0;exitDy=0;entryX=0;entryY=0;entryDx=0;entryDy=0;shadow=0;strokeColor=#FF0000;strokeWidth=2;" edge="1" parent="1" source="3rDCSSCqS77mmed0jcyM-6" target="3rDCSSCqS77mmed0jcyM-74">
          <mxGeometry relative="1" as="geometry" />
        </mxCell>
        <mxCell id="3rDCSSCqS77mmed0jcyM-104" style="edgeStyle=orthogonalEdgeStyle;rounded=0;orthogonalLoop=1;jettySize=auto;html=1;exitX=1;exitY=0.5;exitDx=0;exitDy=0;shadow=0;strokeColor=#00CC00;strokeWidth=2;" edge="1" parent="1" source="3rDCSSCqS77mmed0jcyM-6" target="3rDCSSCqS77mmed0jcyM-97">
          <mxGeometry relative="1" as="geometry" />
        </mxCell>
        <mxCell id="3rDCSSCqS77mmed0jcyM-6" value="Story" style="whiteSpace=wrap;html=1;aspect=fixed;" vertex="1" parent="1">
          <mxGeometry x="500" y="130" width="80" height="80" as="geometry" />
        </mxCell>
        <mxCell id="3rDCSSCqS77mmed0jcyM-32" style="edgeStyle=orthogonalEdgeStyle;rounded=0;orthogonalLoop=1;jettySize=auto;html=1;exitX=0.5;exitY=1;exitDx=0;exitDy=0;shadow=0;strokeColor=#FF0000;strokeWidth=2;" edge="1" parent="1" source="3rDCSSCqS77mmed0jcyM-17" target="3rDCSSCqS77mmed0jcyM-22">
          <mxGeometry relative="1" as="geometry" />
        </mxCell>
        <mxCell id="3rDCSSCqS77mmed0jcyM-41" style="edgeStyle=orthogonalEdgeStyle;rounded=0;orthogonalLoop=1;jettySize=auto;html=1;exitX=1;exitY=0.75;exitDx=0;exitDy=0;shadow=0;strokeColor=#00CC00;strokeWidth=2;entryX=0.925;entryY=0.825;entryDx=0;entryDy=0;entryPerimeter=0;" edge="1" parent="1" source="3rDCSSCqS77mmed0jcyM-17" target="3rDCSSCqS77mmed0jcyM-4">
          <mxGeometry relative="1" as="geometry">
            <mxPoint x="755" y="650" as="targetPoint" />
          </mxGeometry>
        </mxCell>
        <mxCell id="3rDCSSCqS77mmed0jcyM-63" style="edgeStyle=orthogonalEdgeStyle;rounded=0;orthogonalLoop=1;jettySize=auto;html=1;exitX=1;exitY=0.25;exitDx=0;exitDy=0;entryX=0.5;entryY=1;entryDx=0;entryDy=0;shadow=0;strokeColor=#FF8000;strokeWidth=2;" edge="1" parent="1" source="3rDCSSCqS77mmed0jcyM-17" target="3rDCSSCqS77mmed0jcyM-58">
          <mxGeometry relative="1" as="geometry">
            <Array as="points">
              <mxPoint x="240" y="833" />
            </Array>
          </mxGeometry>
        </mxCell>
        <mxCell id="3rDCSSCqS77mmed0jcyM-86" style="edgeStyle=orthogonalEdgeStyle;rounded=0;orthogonalLoop=1;jettySize=auto;html=1;exitX=1;exitY=0.5;exitDx=0;exitDy=0;entryX=0.375;entryY=1;entryDx=0;entryDy=0;shadow=0;strokeColor=#00CC00;strokeWidth=2;" edge="1" parent="1" source="3rDCSSCqS77mmed0jcyM-17" target="3rDCSSCqS77mmed0jcyM-80">
          <mxGeometry relative="1" as="geometry" />
        </mxCell>
        <mxCell id="3rDCSSCqS77mmed0jcyM-98" style="edgeStyle=orthogonalEdgeStyle;rounded=0;orthogonalLoop=1;jettySize=auto;html=1;exitX=0.625;exitY=1;exitDx=0;exitDy=0;entryX=0;entryY=0.25;entryDx=0;entryDy=0;shadow=0;strokeColor=#00CC00;strokeWidth=2;" edge="1" parent="1" source="3rDCSSCqS77mmed0jcyM-17" target="3rDCSSCqS77mmed0jcyM-97">
          <mxGeometry relative="1" as="geometry" />
        </mxCell>
        <mxCell id="3rDCSSCqS77mmed0jcyM-17" value="Actor" style="shape=hexagon;perimeter=hexagonPerimeter2;whiteSpace=wrap;html=1;fixedSize=1;" vertex="1" parent="1">
          <mxGeometry x="80" y="810" width="120" height="80" as="geometry" />
        </mxCell>
        <mxCell id="3rDCSSCqS77mmed0jcyM-83" style="edgeStyle=orthogonalEdgeStyle;rounded=0;orthogonalLoop=1;jettySize=auto;html=1;exitX=1;exitY=0.5;exitDx=0;exitDy=0;shadow=0;strokeColor=#FF00FF;strokeWidth=2;dashed=1;" edge="1" parent="1" source="3rDCSSCqS77mmed0jcyM-22" target="3rDCSSCqS77mmed0jcyM-82">
          <mxGeometry relative="1" as="geometry" />
        </mxCell>
        <mxCell id="3rDCSSCqS77mmed0jcyM-22" value="Do" style="ellipse;whiteSpace=wrap;html=1;aspect=fixed;fillColor=#f8cecc;strokeColor=#b85450;" vertex="1" parent="1">
          <mxGeometry x="100" y="1010" width="80" height="80" as="geometry" />
        </mxCell>
        <mxCell id="3rDCSSCqS77mmed0jcyM-42" style="edgeStyle=orthogonalEdgeStyle;rounded=0;orthogonalLoop=1;jettySize=auto;html=1;exitX=1;exitY=0.25;exitDx=0;exitDy=0;shadow=0;strokeColor=#00CC00;strokeWidth=2;entryX=0;entryY=0.25;entryDx=0;entryDy=0;" edge="1" parent="1" source="3rDCSSCqS77mmed0jcyM-24" target="3rDCSSCqS77mmed0jcyM-4">
          <mxGeometry relative="1" as="geometry" />
        </mxCell>
        <mxCell id="3rDCSSCqS77mmed0jcyM-48" style="edgeStyle=orthogonalEdgeStyle;rounded=0;orthogonalLoop=1;jettySize=auto;html=1;exitX=0.5;exitY=0;exitDx=0;exitDy=0;entryX=1;entryY=0.25;entryDx=0;entryDy=0;shadow=0;strokeColor=#6600CC;strokeWidth=2;" edge="1" parent="1" source="3rDCSSCqS77mmed0jcyM-24" target="3rDCSSCqS77mmed0jcyM-3">
          <mxGeometry relative="1" as="geometry" />
        </mxCell>
        <mxCell id="3rDCSSCqS77mmed0jcyM-49" style="edgeStyle=orthogonalEdgeStyle;rounded=0;orthogonalLoop=1;jettySize=auto;html=1;exitX=0.625;exitY=0;exitDx=0;exitDy=0;shadow=0;strokeColor=#FF8000;strokeWidth=2;entryX=1;entryY=0.5;entryDx=0;entryDy=0;" edge="1" parent="1" source="3rDCSSCqS77mmed0jcyM-24" target="3rDCSSCqS77mmed0jcyM-58">
          <mxGeometry relative="1" as="geometry">
            <mxPoint x="710" y="370" as="targetPoint" />
            <Array as="points">
              <mxPoint x="555" y="420" />
            </Array>
          </mxGeometry>
        </mxCell>
        <mxCell id="3rDCSSCqS77mmed0jcyM-24" value="Recorder" style="shape=hexagon;perimeter=hexagonPerimeter2;whiteSpace=wrap;html=1;fixedSize=1;" vertex="1" parent="1">
          <mxGeometry x="480" y="570" width="120" height="80" as="geometry" />
        </mxCell>
        <mxCell id="3rDCSSCqS77mmed0jcyM-69" style="edgeStyle=orthogonalEdgeStyle;rounded=0;orthogonalLoop=1;jettySize=auto;html=1;exitX=0.5;exitY=0;exitDx=0;exitDy=0;entryX=0;entryY=0.5;entryDx=0;entryDy=0;shadow=0;strokeColor=#FF00FF;strokeWidth=2;" edge="1" parent="1" source="3rDCSSCqS77mmed0jcyM-58" target="3rDCSSCqS77mmed0jcyM-68">
          <mxGeometry relative="1" as="geometry" />
        </mxCell>
        <mxCell id="3rDCSSCqS77mmed0jcyM-58" value="Acc." style="rhombus;whiteSpace=wrap;html=1;" vertex="1" parent="1">
          <mxGeometry x="200" y="380" width="80" height="80" as="geometry" />
        </mxCell>
        <mxCell id="3rDCSSCqS77mmed0jcyM-95" style="edgeStyle=orthogonalEdgeStyle;rounded=0;orthogonalLoop=1;jettySize=auto;html=1;exitX=0.75;exitY=1;exitDx=0;exitDy=0;entryX=0;entryY=0.25;entryDx=0;entryDy=0;shadow=0;strokeColor=#6600CC;strokeWidth=2;" edge="1" parent="1" source="3rDCSSCqS77mmed0jcyM-64" target="3rDCSSCqS77mmed0jcyM-71">
          <mxGeometry relative="1" as="geometry">
            <Array as="points">
              <mxPoint x="340" y="260" />
              <mxPoint x="450" y="260" />
              <mxPoint x="450" y="313" />
            </Array>
          </mxGeometry>
        </mxCell>
        <mxCell id="3rDCSSCqS77mmed0jcyM-96" style="edgeStyle=orthogonalEdgeStyle;rounded=0;orthogonalLoop=1;jettySize=auto;html=1;exitX=0.25;exitY=1;exitDx=0;exitDy=0;entryX=0.375;entryY=0;entryDx=0;entryDy=0;shadow=0;strokeColor=#6600CC;strokeWidth=2;" edge="1" parent="1" source="3rDCSSCqS77mmed0jcyM-64" target="3rDCSSCqS77mmed0jcyM-68">
          <mxGeometry relative="1" as="geometry" />
        </mxCell>
        <mxCell id="3rDCSSCqS77mmed0jcyM-112" style="edgeStyle=orthogonalEdgeStyle;rounded=0;orthogonalLoop=1;jettySize=auto;html=1;exitX=0.75;exitY=0;exitDx=0;exitDy=0;entryX=0.842;entryY=-0.012;entryDx=0;entryDy=0;entryPerimeter=0;shadow=0;strokeColor=#00CC00;strokeWidth=2;" edge="1" parent="1" source="3rDCSSCqS77mmed0jcyM-64" target="3rDCSSCqS77mmed0jcyM-4">
          <mxGeometry relative="1" as="geometry">
            <Array as="points">
              <mxPoint x="340" y="90" />
              <mxPoint x="781" y="90" />
            </Array>
          </mxGeometry>
        </mxCell>
        <mxCell id="3rDCSSCqS77mmed0jcyM-64" value="Beway" style="whiteSpace=wrap;html=1;aspect=fixed;" vertex="1" parent="1">
          <mxGeometry x="280" y="130" width="80" height="80" as="geometry" />
        </mxCell>
        <mxCell id="3rDCSSCqS77mmed0jcyM-79" style="edgeStyle=orthogonalEdgeStyle;rounded=0;orthogonalLoop=1;jettySize=auto;html=1;exitX=0.625;exitY=0;exitDx=0;exitDy=0;entryX=0;entryY=0.75;entryDx=0;entryDy=0;shadow=0;strokeColor=#FF33FF;strokeWidth=2;" edge="1" parent="1" source="3rDCSSCqS77mmed0jcyM-68" target="3rDCSSCqS77mmed0jcyM-6">
          <mxGeometry relative="1" as="geometry">
            <Array as="points">
              <mxPoint x="355" y="230" />
              <mxPoint x="400" y="230" />
              <mxPoint x="400" y="190" />
            </Array>
          </mxGeometry>
        </mxCell>
        <mxCell id="3rDCSSCqS77mmed0jcyM-90" style="edgeStyle=orthogonalEdgeStyle;rounded=0;orthogonalLoop=1;jettySize=auto;html=1;exitX=0.5;exitY=1;exitDx=0;exitDy=0;shadow=0;strokeColor=#6600CC;strokeWidth=2;" edge="1" parent="1" source="3rDCSSCqS77mmed0jcyM-68" target="3rDCSSCqS77mmed0jcyM-2">
          <mxGeometry relative="1" as="geometry" />
        </mxCell>
        <mxCell id="3rDCSSCqS77mmed0jcyM-91" style="edgeStyle=orthogonalEdgeStyle;rounded=0;orthogonalLoop=1;jettySize=auto;html=1;exitX=0.625;exitY=1;exitDx=0;exitDy=0;entryX=0.85;entryY=0;entryDx=0;entryDy=0;entryPerimeter=0;shadow=0;strokeColor=#6600CC;strokeWidth=2;" edge="1" parent="1" source="3rDCSSCqS77mmed0jcyM-68" target="3rDCSSCqS77mmed0jcyM-24">
          <mxGeometry relative="1" as="geometry" />
        </mxCell>
        <mxCell id="3rDCSSCqS77mmed0jcyM-68" value="Interpreter" style="shape=hexagon;perimeter=hexagonPerimeter2;whiteSpace=wrap;html=1;fixedSize=1;" vertex="1" parent="1">
          <mxGeometry x="280" y="290" width="120" height="80" as="geometry" />
        </mxCell>
        <mxCell id="3rDCSSCqS77mmed0jcyM-76" style="edgeStyle=orthogonalEdgeStyle;rounded=0;orthogonalLoop=1;jettySize=auto;html=1;exitX=0.5;exitY=0;exitDx=0;exitDy=0;shadow=0;strokeColor=#FF00FF;strokeWidth=2;" edge="1" parent="1" source="3rDCSSCqS77mmed0jcyM-71" target="3rDCSSCqS77mmed0jcyM-6">
          <mxGeometry relative="1" as="geometry" />
        </mxCell>
        <mxCell id="3rDCSSCqS77mmed0jcyM-92" style="edgeStyle=orthogonalEdgeStyle;rounded=0;orthogonalLoop=1;jettySize=auto;html=1;exitX=0.625;exitY=1;exitDx=0;exitDy=0;entryX=0.625;entryY=0;entryDx=0;entryDy=0;shadow=0;strokeColor=#6600CC;strokeWidth=2;" edge="1" parent="1" source="3rDCSSCqS77mmed0jcyM-71" target="3rDCSSCqS77mmed0jcyM-4">
          <mxGeometry relative="1" as="geometry">
            <Array as="points">
              <mxPoint x="555" y="390" />
              <mxPoint x="755" y="390" />
            </Array>
          </mxGeometry>
        </mxCell>
        <mxCell id="3rDCSSCqS77mmed0jcyM-103" style="edgeStyle=orthogonalEdgeStyle;rounded=0;orthogonalLoop=1;jettySize=auto;html=1;exitX=1;exitY=0.25;exitDx=0;exitDy=0;entryX=0.625;entryY=0;entryDx=0;entryDy=0;shadow=0;strokeColor=#6600CC;strokeWidth=2;dashed=1;" edge="1" parent="1" source="3rDCSSCqS77mmed0jcyM-6" target="3rDCSSCqS77mmed0jcyM-97">
          <mxGeometry relative="1" as="geometry">
            <Array as="points">
              <mxPoint x="625" y="150" />
            </Array>
          </mxGeometry>
        </mxCell>
        <mxCell id="3rDCSSCqS77mmed0jcyM-71" value="Retrointerpreter" style="shape=hexagon;perimeter=hexagonPerimeter2;whiteSpace=wrap;html=1;fixedSize=1;" vertex="1" parent="1">
          <mxGeometry x="480" y="290" width="120" height="80" as="geometry" />
        </mxCell>
        <mxCell id="3rDCSSCqS77mmed0jcyM-78" style="edgeStyle=orthogonalEdgeStyle;rounded=0;orthogonalLoop=1;jettySize=auto;html=1;exitX=0.5;exitY=0;exitDx=0;exitDy=0;entryX=1;entryY=0.75;entryDx=0;entryDy=0;shadow=0;strokeColor=#FF00FF;strokeWidth=2;" edge="1" parent="1" source="3rDCSSCqS77mmed0jcyM-74" target="3rDCSSCqS77mmed0jcyM-6">
          <mxGeometry relative="1" as="geometry" />
        </mxCell>
        <mxCell id="3rDCSSCqS77mmed0jcyM-74" value="Comp." style="rhombus;whiteSpace=wrap;html=1;" vertex="1" parent="1">
          <mxGeometry x="690" y="290" width="80" height="80" as="geometry" />
        </mxCell>
        <mxCell id="3rDCSSCqS77mmed0jcyM-93" style="edgeStyle=orthogonalEdgeStyle;rounded=0;orthogonalLoop=1;jettySize=auto;html=1;exitX=1;exitY=0.25;exitDx=0;exitDy=0;entryX=0.5;entryY=1;entryDx=0;entryDy=0;shadow=0;strokeColor=#00CC00;strokeWidth=2;" edge="1" parent="1" source="3rDCSSCqS77mmed0jcyM-80" target="3rDCSSCqS77mmed0jcyM-4">
          <mxGeometry relative="1" as="geometry" />
        </mxCell>
        <mxCell id="3rDCSSCqS77mmed0jcyM-94" style="edgeStyle=orthogonalEdgeStyle;rounded=0;orthogonalLoop=1;jettySize=auto;html=1;exitX=1;exitY=0.75;exitDx=0;exitDy=0;entryX=0.625;entryY=1;entryDx=0;entryDy=0;shadow=0;strokeColor=#6600CC;strokeWidth=2;dashed=1;" edge="1" parent="1" source="3rDCSSCqS77mmed0jcyM-80" target="3rDCSSCqS77mmed0jcyM-4">
          <mxGeometry relative="1" as="geometry" />
        </mxCell>
        <mxCell id="3rDCSSCqS77mmed0jcyM-80" value="Short Predictor" style="shape=hexagon;perimeter=hexagonPerimeter2;whiteSpace=wrap;html=1;fixedSize=1;" vertex="1" parent="1">
          <mxGeometry x="280" y="730" width="120" height="80" as="geometry" />
        </mxCell>
        <mxCell id="3rDCSSCqS77mmed0jcyM-85" style="edgeStyle=orthogonalEdgeStyle;rounded=0;orthogonalLoop=1;jettySize=auto;html=1;exitX=0.5;exitY=0;exitDx=0;exitDy=0;entryX=0.5;entryY=1;entryDx=0;entryDy=0;shadow=0;strokeColor=#6600CC;strokeWidth=2;dashed=1;" edge="1" parent="1" source="3rDCSSCqS77mmed0jcyM-82" target="3rDCSSCqS77mmed0jcyM-80">
          <mxGeometry relative="1" as="geometry" />
        </mxCell>
        <mxCell id="3rDCSSCqS77mmed0jcyM-82" value="Drop" style="ellipse;whiteSpace=wrap;html=1;aspect=fixed;fillColor=#dae8fc;strokeColor=#6c8ebf;" vertex="1" parent="1">
          <mxGeometry x="300" y="1010" width="80" height="80" as="geometry" />
        </mxCell>
        <mxCell id="3rDCSSCqS77mmed0jcyM-99" style="edgeStyle=orthogonalEdgeStyle;rounded=0;orthogonalLoop=1;jettySize=auto;html=1;exitX=1;exitY=0.5;exitDx=0;exitDy=0;entryX=1;entryY=0.75;entryDx=0;entryDy=0;shadow=0;strokeColor=#00CC00;strokeWidth=2;" edge="1" parent="1" source="3rDCSSCqS77mmed0jcyM-97" target="3rDCSSCqS77mmed0jcyM-4">
          <mxGeometry relative="1" as="geometry">
            <Array as="points">
              <mxPoint x="810" y="930" />
              <mxPoint x="810" y="627" />
            </Array>
          </mxGeometry>
        </mxCell>
        <mxCell id="3rDCSSCqS77mmed0jcyM-109" style="edgeStyle=orthogonalEdgeStyle;rounded=0;orthogonalLoop=1;jettySize=auto;html=1;exitX=1;exitY=0.25;exitDx=0;exitDy=0;entryX=0.767;entryY=1.025;entryDx=0;entryDy=0;entryPerimeter=0;shadow=0;strokeColor=#6600CC;strokeWidth=2;dashed=1;" edge="1" parent="1" source="3rDCSSCqS77mmed0jcyM-97" target="3rDCSSCqS77mmed0jcyM-4">
          <mxGeometry relative="1" as="geometry" />
        </mxCell>
        <mxCell id="3rDCSSCqS77mmed0jcyM-97" value="Long Predictor" style="shape=hexagon;perimeter=hexagonPerimeter2;whiteSpace=wrap;html=1;fixedSize=1;" vertex="1" parent="1">
          <mxGeometry x="550" y="890" width="120" height="80" as="geometry" />
        </mxCell>
        <mxCell id="3rDCSSCqS77mmed0jcyM-108" style="edgeStyle=orthogonalEdgeStyle;rounded=0;orthogonalLoop=1;jettySize=auto;html=1;exitX=0;exitY=0.5;exitDx=0;exitDy=0;shadow=0;strokeColor=#6600CC;strokeWidth=2;entryX=0;entryY=0.25;entryDx=0;entryDy=0;" edge="1" parent="1" source="3rDCSSCqS77mmed0jcyM-105" target="3rDCSSCqS77mmed0jcyM-17">
          <mxGeometry relative="1" as="geometry">
            <mxPoint x="70" y="800" as="targetPoint" />
            <Array as="points">
              <mxPoint x="60" y="980" />
              <mxPoint x="60" y="833" />
            </Array>
          </mxGeometry>
        </mxCell>
        <mxCell id="3rDCSSCqS77mmed0jcyM-110" style="edgeStyle=orthogonalEdgeStyle;rounded=0;orthogonalLoop=1;jettySize=auto;html=1;exitX=0;exitY=0.25;exitDx=0;exitDy=0;shadow=0;strokeColor=#FF0000;strokeWidth=2;entryX=0;entryY=0.75;entryDx=0;entryDy=0;" edge="1" parent="1" source="3rDCSSCqS77mmed0jcyM-105" target="3rDCSSCqS77mmed0jcyM-17">
          <mxGeometry relative="1" as="geometry">
            <Array as="points">
              <mxPoint x="70" y="963" />
              <mxPoint x="70" y="867" />
            </Array>
          </mxGeometry>
        </mxCell>
        <mxCell id="3rDCSSCqS77mmed0jcyM-113" style="edgeStyle=orthogonalEdgeStyle;rounded=0;orthogonalLoop=1;jettySize=auto;html=1;exitX=0.625;exitY=0;exitDx=0;exitDy=0;entryX=0;entryY=0.75;entryDx=0;entryDy=0;shadow=0;strokeColor=#6600CC;strokeWidth=2;" edge="1" parent="1" source="3rDCSSCqS77mmed0jcyM-105" target="3rDCSSCqS77mmed0jcyM-4">
          <mxGeometry relative="1" as="geometry">
            <Array as="points">
              <mxPoint x="475" y="830" />
              <mxPoint x="660" y="830" />
              <mxPoint x="660" y="627" />
            </Array>
          </mxGeometry>
        </mxCell>
        <mxCell id="3rDCSSCqS77mmed0jcyM-105" value="Desirer" style="shape=hexagon;perimeter=hexagonPerimeter2;whiteSpace=wrap;html=1;fixedSize=1;" vertex="1" parent="1">
          <mxGeometry x="400" y="940" width="120" height="80" as="geometry" />
        </mxCell>
        <mxCell id="3rDCSSCqS77mmed0jcyM-115" style="edgeStyle=orthogonalEdgeStyle;rounded=0;orthogonalLoop=1;jettySize=auto;html=1;exitX=0;exitY=0.5;exitDx=0;exitDy=0;entryX=0.625;entryY=1;entryDx=0;entryDy=0;shadow=0;strokeColor=#6600CC;strokeWidth=2;" edge="1" parent="1" source="3rDCSSCqS77mmed0jcyM-114" target="3rDCSSCqS77mmed0jcyM-105">
          <mxGeometry relative="1" as="geometry" />
        </mxCell>
        <mxCell id="3rDCSSCqS77mmed0jcyM-114" value="Qiam" style="ellipse;whiteSpace=wrap;html=1;aspect=fixed;fillColor=#d5e8d4;strokeColor=#82b366;" vertex="1" parent="1">
          <mxGeometry x="580" y="1010" width="80" height="80" as="geometry" />
        </mxCell>
        <mxCell id="3rDCSSCqS77mmed0jcyM-116" style="edgeStyle=orthogonalEdgeStyle;rounded=0;orthogonalLoop=1;jettySize=auto;html=1;exitX=0;exitY=0.5;exitDx=0;exitDy=0;shadow=0;strokeColor=#FF0000;strokeWidth=2;" edge="1" parent="1" source="3rDCSSCqS77mmed0jcyM-6" target="3rDCSSCqS77mmed0jcyM-105">
          <mxGeometry relative="1" as="geometry" />
        </mxCell>
        <mxCell id="3rDCSSCqS77mmed0jcyM-117" style="edgeStyle=orthogonalEdgeStyle;rounded=0;orthogonalLoop=1;jettySize=auto;html=1;exitX=0.5;exitY=1;exitDx=0;exitDy=0;entryX=0.375;entryY=0;entryDx=0;entryDy=0;shadow=0;strokeColor=#FF0000;strokeWidth=2;" edge="1" parent="1" source="3rDCSSCqS77mmed0jcyM-1" target="3rDCSSCqS77mmed0jcyM-105">
          <mxGeometry relative="1" as="geometry">
            <Array as="points">
              <mxPoint x="140" y="780" />
              <mxPoint x="270" y="780" />
              <mxPoint x="270" y="900" />
              <mxPoint x="445" y="900" />
            </Array>
          </mxGeometry>
        </mxCell>
      </root>
    </mxGraphModel>
  </diagram>
</mxfile>
